HIERARCHY
ROOT hip
{
  OFFSET 0 0 0
  CHANNELS 6 Xposition Yposition Zposition Zrotation Yrotation Xrotation
  JOINT abdomen
  {
    OFFSET 0 20.6881 -0.73152
    CHANNELS 3 Zrotation Xrotation Yrotation
    JOINT chest
    {
      OFFSET 0 11.7043 -0.48768
      CHANNELS 3 Zrotation Xrotation Yrotation
      JOINT neck
      {
        OFFSET 0 22.1894 -2.19456
        CHANNELS 3 Zrotation Xrotation Yrotation
        JOINT head
        {
          OFFSET -0.24384 7.07133 1.2192
          CHANNELS 3 Zrotation Xrotation Yrotation
          JOINT leftEye
          {
            OFFSET 4.14528 8.04674 8.04672
            CHANNELS 3 Zrotation Xrotation Yrotation
            End Site
            {
              OFFSET 1 0 0
            }
          }
          JOINT rightEye
          {
            OFFSET -3.6576 8.04674 8.04672
            CHANNELS 3 Zrotation Xrotation Yrotation
            End Site
            {
              OFFSET 1 0 0
            }
          }
        }
      }
      JOINT rCollar
      {
        OFFSET -2.68224 19.2634 -4.8768
        CHANNELS 3 Zrotation Xrotation Yrotation
        JOINT rShldr
        {
          OFFSET -8.77824 -1.95073 1.46304
          CHANNELS 3 Zrotation Xrotation Yrotation
          JOINT rForeArm
          {
            OFFSET -28.1742 -1.7115 0.48768
            CHANNELS 3 Zrotation Xrotation Yrotation
            JOINT rHand
            {
              OFFSET -22.5879 0.773209 7.07136
              CHANNELS 3 Zrotation Xrotation Yrotation
              JOINT rThumb1
              {
                OFFSET -1.2192 -0.487915 3.41376
                CHANNELS 3 Zrotation Xrotation Yrotation
                JOINT rThumb2
                {
                  OFFSET -3.37035 -0.52449 3.41376
                  CHANNELS 3 Zrotation Xrotation Yrotation
                  End Site
                  {
                    OFFSET -1.78271 -1.18214 1.43049
                  }
                }
              }
              JOINT rIndex1
              {
                OFFSET -7.75947 0.938293 5.60832
                CHANNELS 3 Zrotation Xrotation Yrotation
                JOINT rIndex2
                {
                  OFFSET -2.54057 -0.884171 1.56538
                  CHANNELS 3 Zrotation Xrotation Yrotation
                  End Site
                  {
                    OFFSET -1.62519 -0.234802 1.16502
                  }
                }
              }
              JOINT rMid1
              {
                OFFSET -8.24714 1.18213 3.41376
                CHANNELS 3 Zrotation Xrotation Yrotation
                JOINT rMid2
                {
                  OFFSET -3.10165 -0.590103 1.0647
                  CHANNELS 3 Zrotation Xrotation Yrotation
                  End Site
                  {
                    OFFSET -2.48547 -0.328903 0.83742
                  }
                }
              }
              JOINT rRing1
              {
                OFFSET -8.82822 0.546677 1.51678
                CHANNELS 3 Zrotation Xrotation Yrotation
                JOINT rRing2
                {
                  OFFSET -2.60934 -0.819778 -0.0198488
                  CHANNELS 3 Zrotation Xrotation Yrotation
                  End Site
                  {
                    OFFSET -2.33842 -0.294052 0.168128
                  }
                }
              }
              JOINT rPinky1
              {
                OFFSET -8.27202 -0.0477905 -0.4584
                CHANNELS 3 Zrotation Xrotation Yrotation
                JOINT rPinky2
                {
                  OFFSET -1.82734 -0.647385 -0.700984
                  CHANNELS 3 Zrotation Xrotation Yrotation
                  End Site
                  {
                    OFFSET -1.69225 -0.51767 -0.607171
                  }
                }
              }
            }
          }
        }
      }
      JOINT lCollar
      {
        OFFSET 2.68224 19.2634 -4.8768
        CHANNELS 3 Zrotation Xrotation Yrotation
        JOINT lShldr
        {
          OFFSET 8.77824 -1.95073 1.46304
          CHANNELS 3 Zrotation Xrotation Yrotation
          JOINT lForeArm
          {
            OFFSET 28.1742 -1.7115 0.48768
            CHANNELS 3 Zrotation Xrotation Yrotation
            JOINT lHand
            {
              OFFSET 22.5879 0.773209 7.07136
              CHANNELS 3 Zrotation Xrotation Yrotation
              JOINT lThumb1
              {
                OFFSET 1.2192 -0.487915 3.41376
                CHANNELS 3 Zrotation Xrotation Yrotation
                JOINT lThumb2
                {
                  OFFSET 3.37035 -0.52449 3.41376
                  CHANNELS 3 Zrotation Xrotation Yrotation
                  End Site
                  {
                    OFFSET 1.78271 -1.18214 1.43049
                  }
                }
              }
              JOINT lIndex1
              {
                OFFSET 7.75947 0.938293 5.60832
                CHANNELS 3 Zrotation Xrotation Yrotation
                JOINT lIndex2
                {
                  OFFSET 2.54057 -0.884171 1.56538
                  CHANNELS 3 Zrotation Xrotation Yrotation
                  End Site
                  {
                    OFFSET 1.62519 -0.234802 1.16502
                  }
                }
              }
              JOINT lMid1
              {
                OFFSET 8.24714 1.18213 3.41376
                CHANNELS 3 Zrotation Xrotation Yrotation
                JOINT lMid2
                {
                  OFFSET 3.10165 -0.590103 1.0647
                  CHANNELS 3 Zrotation Xrotation Yrotation
                  End Site
                  {
                    OFFSET 2.48547 -0.328903 0.83742
                  }
                }
              }
              JOINT lRing1
              {
                OFFSET 8.82822 0.546677 1.51678
                CHANNELS 3 Zrotation Xrotation Yrotation
                JOINT lRing2
                {
                  OFFSET 2.60934 -0.819778 -0.0198488
                  CHANNELS 3 Zrotation Xrotation Yrotation
                  End Site
                  {
                    OFFSET 2.33842 -0.294052 0.168128
                  }
                }
              }
              JOINT lPinky1
              {
                OFFSET 8.27202 -0.0477905 -0.4584
                CHANNELS 3 Zrotation Xrotation Yrotation
                JOINT lPinky2
                {
                  OFFSET 1.82734 -0.647385 -0.700984
                  CHANNELS 3 Zrotation Xrotation Yrotation
                  End Site
                  {
                    OFFSET 1.69225 -0.51767 -0.607171
                  }
                }
              }
            }
          }
        }
      }
    }
  }
  JOINT rButtock
  {
    OFFSET -8.77824 4.35084 1.2192
    CHANNELS 3 Zrotation Xrotation Yrotation
    JOINT rThigh
    {
      OFFSET 0 -1.70687 -2.19456
      CHANNELS 3 Zrotation Xrotation Yrotation
      JOINT rShin
      {
        OFFSET 0 -36.8199 0.73152
        CHANNELS 3 Zrotation Xrotation Yrotation
        JOINT rFoot
        {
          OFFSET 0.73152 -45.1104 -5.12064
          CHANNELS 3 Zrotation Xrotation Yrotation
          End Site
          {
            OFFSET -1.1221 -3.69964 12.103
          }
        }
      }
    }
  }
  JOINT lButtock
  {
    OFFSET 8.77824 4.35084 1.2192
    CHANNELS 3 Zrotation Xrotation Yrotation
    JOINT lThigh
    {
      OFFSET 0 -1.70687 -2.19456
      CHANNELS 3 Zrotation Xrotation Yrotation
      JOINT lShin
      {
        OFFSET 0 -36.8199 0.73152
        CHANNELS 3 Zrotation Xrotation Yrotation
        JOINT lFoot
        {
          OFFSET -0.73152 -45.1104 -5.12064
          CHANNELS 3 Zrotation Xrotation Yrotation
          End Site
          {
            OFFSET 1.1221 -3.69964 12.103
          }
        }
      }
    }
  }
}
MOTION
Frames:	5
Frame Time:	0.00833333
-3.11342 78.2891 -55.0904 -8.6222 44.0847 -11.1589 2.04678 7.07983 -5.09974 0.618043 -6.5217 -1.51186 -16.1591 10.52 -11.1168 18.1914 -38.0078 -14.8007 -0.0 0.0 0.0 -0.0 0.0 0.0 1.2498e-14 3.67719e-13 4.86128e-13 21.9194 -17.7695 73.6619 -28.4269 -34.9198 75.2179 -1.17867 29.2537 4.51477 -1.67042e-09 1.25183e-09 -3.58843e-10 -2.88749e-09 2.1389e-09 -5.83395e-10 -1.67041e-09 1.25182e-09 -3.58849e-10 7.73091 5.47488 0.417314 -1.67042e-09 1.25183e-09 -3.58845e-10 2.90554 0.965183 0.102902 -1.67041e-09 1.25182e-09 -3.58845e-10 10.2786 0.731801 0.0259123 -1.67042e-09 1.25183e-09 -3.58837e-10 2.22167 -0.733487 -0.20892 1.23854e-14 3.67727e-13 4.8592e-13 -32.6609 -8.9161 -99.6032 24.7687 -20.6079 -52.1462 6.76835 -56.9103 12.4547 3.07457e-09 -3.13284e-09 4.78787e-09 5.06257e-09 -5.16739e-09 8.37219e-09 3.07457e-09 -3.13284e-09 4.78788e-09 -7.73091 5.47488 -0.417314 3.07457e-09 -3.13284e-09 4.78787e-09 -2.90554 0.965183 -0.102902 3.07456e-09 -3.13284e-09 4.78787e-09 -10.2786 0.731801 -0.0259123 3.07457e-09 -3.13284e-09 4.78786e-09 -2.22167 -0.733487 0.20892 -2.03217e-16 0.0 -3.88251e-19 -0.557097 -23.489 2.11323 -0.597894 50.7678 1.20559 -2.94196 -8.80785 -9.96313 2.03217e-16 0.0 3.88251e-19 11.1851 -16.6242 0.171388 0.6868 53.715 -1.30618 -4.33665 -13.9356 -14.054
-2.98181 79.3786 -54.9323 -8.6948 44.3968 -10.9936 1.87053 6.46046 -4.95416 0.68912 -6.62899 -1.47401 -16.2798 10.6545 -11.2471 18.2314 -37.74 -15.1107 -0.0 0.0 0.0 -0.0 0.0 0.0 6.11704e-14 4.20799e-13 6.82192e-13 21.6838 -18.7746 73.4806 -28.3809 -34.0711 73.933 -1.25532 30.0879 4.67032 -2.37969e-09 1.91386e-09 -8.76162e-10 -4.12164e-09 3.27256e-09 -1.45755e-09 -2.37968e-09 1.91386e-09 -8.76167e-10 7.73091 5.47488 0.417314 -2.37969e-09 1.91386e-09 -8.76161e-10 2.90554 0.965183 0.102902 -2.37968e-09 1.91386e-09 -8.76162e-10 10.2786 0.731801 0.0259123 -2.37969e-09 1.91387e-09 -8.76155e-10 2.22167 -0.733487 -0.20892 6.10706e-14 4.20804e-13 6.81965e-13 -32.7445 -9.4428 -100.401 24.5585 -20.178 -51.4352 6.64488 -56.6024 12.3072 3.14412e-09 -3.29193e-09 5.48659e-09 5.15339e-09 -5.41557e-09 9.57662e-09 3.14412e-09 -3.29193e-09 5.4866e-09 -7.73091 5.47488 -0.417314 3.14412e-09 -3.29193e-09 5.48659e-09 -2.90554 0.965183 -0.102902 3.14412e-09 -3.29193e-09 5.4866e-09 -10.2786 0.731801 -0.0259123 3.14412e-09 -3.29193e-09 5.48659e-09 -2.22167 -0.733487 0.20892 -2.03217e-16 0.0 -3.88251e-19 -0.713487 -22.6489 1.89238 -0.543238 48.9373 1.10925 -2.42776 -6.76163 -9.26914 2.03217e-16 0.0 3.88251e-19 10.7949 -15.961 -0.545741 0.607555 51.776 -1.22757 -3.75773 -11.4362 -14.2922
-2.85892 80.4468 -54.7996 -8.7311 44.6935 -10.7762 1.68685 5.85278 -4.80013 0.757876 -6.74256 -1.43231 -16.3963 10.7612 -11.3802 18.2825 -37.4763 -15.415 -0.0 0.0 0.0 -0.0 0.0 0.0 1.00755e-13 4.43975e-13 7.93269e-13 21.5131 -19.8639 73.3896 -28.3079 -33.1267 72.4368 -1.33123 30.8764 4.82005 -2.76895e-09 2.39255e-09 -1.29567e-09 -4.80209e-09 4.09391e-09 -2.17084e-09 -2.76895e-09 2.39255e-09 -1.29568e-09 7.73091 5.47488 0.417314 -2.76896e-09 2.39254e-09 -1.29567e-09 2.90554 0.965183 0.102902 -2.76895e-09 2.39255e-09 -1.29567e-09 10.2786 0.731801 0.0259123 -2.76896e-09 2.39255e-09 -1.29566e-09 2.22167 -0.733487 -0.20892 1.00674e-13 4.43977e-13 7.93025e-13 -32.8322 -9.97226 -101.205 24.34 -19.7449 -50.7094 6.52952 -56.308 12.1687 2.98637e-09 -3.18011e-09 5.69746e-09 4.8757e-09 -5.21724e-09 9.93197e-09 2.98637e-09 -3.18011e-09 5.69747e-09 -7.73091 5.47488 -0.417314 2.98638e-09 -3.18011e-09 5.69746e-09 -2.90554 0.965183 -0.102902 2.98637e-09 -3.18011e-09 5.69747e-09 -10.2786 0.731801 -0.0259123 2.98637e-09 -3.18011e-09 5.69746e-09 -2.22167 -0.733487 0.20892 -2.03217e-16 0.0 -3.88251e-19 -0.863554 -21.9044 1.74711 -0.49613 47.17 1.02164 -1.97375 -4.66234 -8.67746 2.03217e-16 0.0 3.88251e-19 10.3981 -15.4103 -1.22291 0.539667 49.9566 -1.16142 -3.12094 -8.89423 -14.4438
-2.74284 81.4835 -54.6869 -8.7212 44.9744 -10.5073 1.4956 5.25829 -4.64049 0.823097 -6.84266 -1.38775 -16.5026 10.822 -11.5093 18.3333 -37.2096 -15.7001 -0.0 0.0 0.0 -0.0 0.0 0.0 1.08196e-13 4.42892e-13 7.57171e-13 21.3823 -21.0643 73.4333 -28.2154 -32.105 70.623 -1.40169 31.5738 4.95497 -2.20684e-09 2.23718e-09 -1.38276e-09 -3.83426e-09 3.83351e-09 -2.33456e-09 -2.20684e-09 2.23718e-09 -1.38276e-09 7.73091 5.47488 0.417314 -2.20685e-09 2.23717e-09 -1.38275e-09 2.90554 0.965183 0.102902 -2.20684e-09 2.23718e-09 -1.38275e-09 10.2786 0.731801 0.0259123 -2.20685e-09 2.23718e-09 -1.38275e-09 2.22167 -0.733487 -0.20892 1.08138e-13 4.42892e-13 7.56922e-13 -32.9 -10.5515 -102.01 24.1064 -19.2971 -49.9475 6.45513 -56.1144 12.079 2.80087e-09 -2.91066e-09 5.13363e-09 4.58413e-09 -4.77069e-09 8.95333e-09 2.80087e-09 -2.91066e-09 5.13364e-09 -7.73091 5.47488 -0.417314 2.80088e-09 -2.91066e-09 5.13363e-09 -2.90554 0.965183 -0.102902 2.80087e-09 -2.91066e-09 5.13364e-09 -10.2786 0.731801 -0.0259123 2.80088e-09 -2.91066e-09 5.13363e-09 -2.22167 -0.733487 0.20892 -2.03217e-16 0.0 -3.88251e-19 -0.98717 -21.2485 1.67922 -0.456932 45.5131 0.944588 -1.61267 -2.6819 -8.30616 2.03217e-16 0.0 3.88251e-19 10.0101 -14.9519 -1.80263 0.483164 48.2897 -1.10524 -2.47802 -6.52298 -14.4169
-2.63501 82.4738 -54.5919 -8.6678 45.2179 -10.1887 1.2884 4.67709 -4.47843 0.892087 -6.92656 -1.34053 -16.6059 10.8045 -11.637 18.3745 -36.9118 -15.9685 -0.0 0.0 0.0 -0.0 0.0 0.0 6.36536e-14 4.04459e-13 4.76827e-13 21.3208 -22.3895 73.6761 -28.0598 -30.8516 68.4694 -1.46449 32.1765 5.07315 9.15512e-11 9.61353e-10 -9.31572e-10 1.40384e-10 1.66275e-09 -1.61333e-09 9.15552e-11 9.61353e-10 -9.31576e-10 7.73091 5.47488 0.417314 9.15436e-11 9.61349e-10 -9.31566e-10 2.90554 0.965183 0.102902 9.15552e-11 9.61353e-10 -9.31567e-10 10.2786 0.731801 0.0259123 9.15448e-11 9.61356e-10 -9.31561e-10 2.22167 -0.733487 -0.20892 6.36306e-14 4.04458e-13 4.76594e-13 -32.953 -11.208 -102.808 23.8545 -18.8282 -49.1499 6.44084 -56.0767 12.0618 2.57471e-09 -2.36707e-09 3.20657e-09 4.28261e-09 -3.89156e-09 5.62756e-09 2.57471e-09 -2.36707e-09 3.20658e-09 -7.73091 5.47488 -0.417314 2.57471e-09 -2.36707e-09 3.20657e-09 -2.90554 0.965183 -0.102902 2.5747e-09 -2.36707e-09 3.20657e-09 -10.2786 0.731801 -0.0259123 2.57471e-09 -2.36707e-09 3.20657e-09 -2.22167 -0.733487 0.20892 -2.03217e-16 0.0 -3.88251e-19 -1.09015 -20.6893 1.71742 -0.42255 43.9416 0.874461 -1.30452 -0.702224 -8.17041 2.03217e-16 0.0 3.88251e-19 9.61185 -14.6028 -2.3004 0.436482 46.7783 -1.05811 -1.83418 -4.23881 -14.2186
